<svg xmlns="http://www.w3.org/2000/svg" xmlns:svg="http://www.w3.org/2000/svg" id="Capa_1" x="0" y="0" enable-background="new 0 0 141.7 141.7" version="1.1" viewBox="0 0 141.7 141.7" xml:space="preserve"><metadata id="metadata955"/><g id="g1558" transform="translate(16.398417,2.4436968)" style="fill:#fff;fill-opacity:1"><path id="rect1518" d="m 14.451582,48.406303 c -2.77,0 -4.9999999,2.23 -4.9999999,5 V 123.4063 c 0,2.77 2.2299999,5 4.9999999,5 h 30.5 c -1.662,0 -3,-1.338 -3,-3 V 86.406303 c 0,-1.662 1.338,-3 3,-3 h 19 c 1.662,0 3,1.338 3,3 V 125.4063 c 0,1.662 -1.338,3 -3,3 h 30.5 c 2.77,0 5,-2.23 5,-5 V 53.406303 c 0,-2.77 -2.23,-5 -5,-5 z" style="display:inline;opacity:.994175;fill:#fff;fill-opacity:1;stroke-width:6;stroke-linecap:round;stroke-linejoin:round"/><path style="display:inline;opacity:1;fill:#fff;fill-opacity:1;stroke:none;stroke-width:1px;stroke-linecap:butt;stroke-linejoin:miter;stroke-opacity:1" id="path1522" d="M -10.548418,68.406303 H 119.45158 L 54.451582,8.4063034 Z"/><rect style="display:inline;opacity:.994175;fill:#fff;fill-opacity:1;fill-rule:nonzero;stroke:none;stroke-width:6;stroke-linecap:round;stroke-linejoin:round" id="rect1524" width="20" height="35" x="74.452" y="13.406" ry="3"/></g></svg>