<svg xmlns="http://www.w3.org/2000/svg" xmlns:xlink="http://www.w3.org/1999/xlink" id="Ebene_1" x="0" y="0" version="1.1" viewBox="0 0 85 85" xml:space="preserve" style="enable-background:new 0 0 85 85"><style type="text/css">.st0{fill:#707173}.st1{fill:#9c9e9f}</style><path d="M35.8,82h21.4c9.4-6.7,16-22.1,16-39.9C73.2,24.8,67,9.8,58,2.8H35.6c9,7,15.2,22,15.2,39.3	c0,17.5-6.4,32.6-15.5,39.5C35.4,81.8,35.6,81.9,35.8,82z" class="st0"/><g><path d="M39.7,37.1c1.1-15.2,6.9-27.9,15-34.3H32.3c-8.1,6.3-14,19.1-15,34.3H39.7z" class="st1"/><path d="M42.4,61.6H19.9c2.8,9.1,7.5,16.3,13.2,20.4h21.4c0.2-0.1,0.4-0.2,0.5-0.4C49.6,77.5,45.1,70.4,42.4,61.6z" class="st1"/></g><polygon points="12.5 28.9 29.8 58.3 47.7 28.7" class="st1"/></svg>