<svg xmlns="http://www.w3.org/2000/svg" xmlns:xlink="http://www.w3.org/1999/xlink" id="Capa_1" x="0" y="0" version="1.1" viewBox="-1178 30.3 141.7 141.7" xml:space="preserve" style="enable-background:new -1178 30.3 141.7 141.7"><style type="text/css">.st0{fill:#39a9dc}</style><g><g><path d="M-1059.9,95.6l-21,21c-11.6,11.6-30.4,11.6-42,0c-1.8-1.8-3.3-3.9-4.5-6l9.8-9.8c0.5-0.5,1-0.7,1.6-1.1 c0.7,2.3,1.9,4.5,3.7,6.3c5.8,5.8,15.2,5.8,21,0l21-21c5.8-5.8,5.8-15.2,0-21c-5.8-5.8-15.2-5.8-21,0l-7.5,7.5 c-6.1-2.4-12.6-3-18.9-2.1l15.9-15.9c11.6-11.6,30.4-11.6,42,0C-1048.3,65.3-1048.3,84.1-1059.9,95.6L-1059.9,95.6z M-1115.4,130.1l-7.5,7.5c-5.8,5.8-15.2,5.8-21,0c-5.8-5.8-5.8-15.2,0-21l21-21c5.8-5.8,15.2-5.8,21,0c1.8,1.8,3,4,3.7,6.3 c0.6-0.3,1.1-0.6,1.6-1l9.8-9.7c-1.2-2.1-2.7-4.2-4.5-6c-11.6-11.6-30.4-11.6-42,0l-21,21c-11.6,11.6-11.6,30.4,0,42 c11.6,11.6,30.4,11.6,42,0l15.9-15.9C-1102.8,133.1-1109.3,132.5-1115.4,130.1L-1115.4,130.1z" class="st0"/></g></g></svg>