<svg xmlns="http://www.w3.org/2000/svg" xmlns:xlink="http://www.w3.org/1999/xlink" id="Capa_1" x="0" y="0" enable-background="new 0 0 141.7 141.7" version="1.1" viewBox="0 0 141.7 141.7" xml:space="preserve"><g id="EQ__x2F__Equalizer__x2F__Mixer"><path fill="#818181" d="M37,48.3h-4.5V9.9c0-3.7-3-6.8-6.8-6.8s-6.8,3-6.8,6.8v38.4h-4.5c-5,0-9,4-9,9v9c0,5,4,9,9,9h4.5v56.5 c0,3.7,3,6.8,6.8,6.8c3.7,0,6.8-3,6.8-6.8V75.4H37c5,0,9-4,9-9v-9C46,52.3,42,48.3,37,48.3z M82.2,88.9h-4.5V9.9 c0-3.7-3-6.8-6.8-6.8c-3.7,0-6.8,3-6.8,6.8v79.1h-4.5c-5,0-9,4-9,9v9c0,5,4,9,9,9h4.5v15.8c0,3.7,3,6.8,6.8,6.8 c3.7,0,6.8-3,6.8-6.8V116h4.5c5,0,9-4,9-9v-9C91.2,93,87.1,88.9,82.2,88.9z M127.3,16.7h-4.5V9.9c0-3.7-3-6.8-6.8-6.8 c-3.7,0-6.8,3-6.8,6.8v6.8h-4.5c-5,0-9,4-9,9v9c0,5,4,9,9,9h4.5v88.1c0,3.7,3,6.8,6.8,6.8c3.7,0,6.8-3,6.8-6.8V43.8h4.5 c5,0,9-4,9-9v-9C136.4,20.7,132.3,16.7,127.3,16.7z"/></g></svg>