<svg xmlns="http://www.w3.org/2000/svg" xmlns:xlink="http://www.w3.org/1999/xlink" id="Capa_1" x="0" y="0" version="1.1" viewBox="-28 30.3 141.7 141.7" xml:space="preserve" style="enable-background:new -28 30.3 141.7 141.7"><style type="text/css">.st0{stroke:#818181;stroke-width:5;stroke-miterlimit:10}.st0,.st1{fill:#818181}</style><path d="M42.2,154.8c-29.8,0-54-24.2-54-54c0-29.8,24.2-54,54-54c29.8,0,54,24.2,54,54S72,154.8,42.2,154.8z M42.2,51.7	c-27,0-49,22-49,49c0,27,22,49,49,49c27,0,49-22,49-49C91.2,73.7,69.2,51.7,42.2,51.7z" class="st0"/><rect width="5" height="132" x="39.7" y="34.7" class="st0"/><rect width="132" height="5" x="-23.8" y="98.2" class="st0"/><g><g><g><path d="M42.2,100.7l0,33.7c-18.6,0-33.7-15.1-33.7-33.7l0,0L42.2,100.7z" class="st1"/></g></g><g><g><path d="M42.2,100.7l0-33.7c18.6,0,33.7,15.1,33.7,33.7l0,0L42.2,100.7z" class="st1"/></g></g></g></svg>