<svg xmlns="http://www.w3.org/2000/svg" xmlns:svg="http://www.w3.org/2000/svg" id="Capa_1" x="0" y="0" enable-background="new 0 0 141.7 141.7" version="1.1" viewBox="0 0 141.7 141.7" xml:space="preserve"><metadata id="metadata19"/><defs id="defs17"><marker style="overflow:visible" id="marker1338" orient="auto" refX="0" refY="0"><path style="fill-rule:evenodd;stroke:#000;stroke-width:1pt" id="path1336" d="M 0.0,0.0 L 5.0,-5.0 L -12.5,0.0 L 5.0,5.0 L 0.0,0.0 z" transform="scale(0.8) translate(12.5,0)"/></marker><marker style="overflow:visible" id="marker1292" orient="auto" refX="0" refY="0"><path style="fill-rule:evenodd;stroke:#000;stroke-width:1pt" id="path1290" d="M 0.0,0.0 L 5.0,-5.0 L -12.5,0.0 L 5.0,5.0 L 0.0,0.0 z" transform="scale(0.8) translate(12.5,0)"/></marker><marker style="overflow:visible" id="marker1252" orient="auto" refX="0" refY="0"><path style="fill-rule:evenodd;stroke:#000;stroke-width:1pt" id="path1250" d="M 0.0,0.0 L 5.0,-5.0 L -12.5,0.0 L 5.0,5.0 L 0.0,0.0 z" transform="scale(0.8) translate(12.5,0)"/></marker><marker style="overflow:visible" id="marker1218" orient="auto" refX="0" refY="0"><path style="fill-rule:evenodd;stroke:#000;stroke-width:1pt" id="path1216" d="M 0.0,0.0 L 5.0,-5.0 L -12.5,0.0 L 5.0,5.0 L 0.0,0.0 z" transform="scale(0.8) translate(12.5,0)"/></marker><marker style="overflow:visible" id="marker1172" orient="auto" refX="0" refY="0"><path style="fill-rule:evenodd;stroke:#000;stroke-width:1pt;stroke-opacity:1;fill:#000;fill-opacity:1" id="path1170" d="M 0.0,0.0 L 5.0,-5.0 L -12.5,0.0 L 5.0,5.0 L 0.0,0.0 z" transform="scale(0.8) translate(12.5,0)"/></marker><marker style="overflow:visible" id="marker1150" orient="auto" refX="0" refY="0"><path style="fill-rule:evenodd;stroke:#000;stroke-width:1pt;stroke-opacity:1;fill:#000;fill-opacity:1" id="path1148" d="M 0.0,0.0 L 5.0,-5.0 L -12.5,0.0 L 5.0,5.0 L 0.0,0.0 z" transform="scale(0.8) translate(12.5,0)"/></marker><marker style="overflow:visible" id="marker1128" orient="auto" refX="0" refY="0"><path style="fill-rule:evenodd;stroke:#000;stroke-width:1pt;stroke-opacity:1;fill:#000;fill-opacity:1" id="path1126" d="M 0.0,0.0 L 5.0,-5.0 L -12.5,0.0 L 5.0,5.0 L 0.0,0.0 z" transform="scale(0.8) translate(12.5,0)"/></marker><marker style="overflow:visible" id="Arrow1Lstart" orient="auto" refX="0" refY="0"><path style="fill-rule:evenodd;stroke:#000;stroke-width:1pt" id="path856" d="M 0.0,0.0 L 5.0,-5.0 L -12.5,0.0 L 5.0,5.0 L 0.0,0.0 z" transform="scale(0.8) translate(12.5,0)"/></marker><filter style="color-interpolation-filters:sRGB" id="filter3685" width="1" height="1" x="0" y="0"><feGaussianBlur id="feGaussianBlur3687" stdDeviation=".001"/></filter></defs><g id="layer3" style="display:none;opacity:.989808"><path style="opacity:.994175;fill:#f3f3f3;fill-opacity:1;stroke-width:5.998;stroke-linecap:round;stroke-linejoin:round;stroke-miterlimit:4;stroke-dasharray:none" id="path4372" d="m -70.849997,-22.137497 c -11.431535,0 -57.677293,-80.100003 -51.961523,-90.000003 5.71576,-9.9 98.207277,-9.9 103.923045,0 5.715768,9.9 -40.529987,90.000003 -51.961522,90.000003 z" transform="rotate(-90,70.849997,-70.849998)"/></g><g id="layer4" style="display:inline"><path id="path932" d="M 70.527344 13.40625 A 58.195812 58.195812 0 0 0 12.654297 71.601562 A 58.195812 58.195812 0 0 0 70.849609 129.79688 A 58.195812 58.195812 0 0 0 129.04492 71.601562 A 58.195812 58.195812 0 0 0 70.849609 13.40625 A 58.195812 58.195812 0 0 0 70.527344 13.40625 z M 70.763672 24.539062 A 47.062809 47.062809 0 0 1 70.849609 24.539062 A 47.062809 47.062809 0 0 1 117.91211 71.601562 A 47.062809 47.062809 0 0 1 70.849609 118.66406 A 47.062809 47.062809 0 0 1 23.787109 71.601562 A 47.062809 47.062809 0 0 1 70.763672 24.539062 z" style="opacity:.994175;fill:#f3f3f3;fill-opacity:1;stroke-width:6.07261;stroke-linecap:round;stroke-linejoin:round"/><circle style="display:inline;opacity:.994175;fill:#f3f3f3;fill-opacity:1;stroke-width:1.82512;stroke-linecap:round;stroke-linejoin:round" id="path932-8" cx="70.85" cy="71.601" r="17.491"/><rect style="opacity:.994175;fill:#f3f3f3;fill-opacity:1;stroke-width:5.99811;stroke-linecap:round;stroke-linejoin:round;stroke-miterlimit:4;stroke-dasharray:none" id="rect964" width="15" height="40" x="63.35" y=".751" ry="7.5"/><rect style="opacity:.994175;fill:#f3f3f3;fill-opacity:1;stroke-width:5.99811;stroke-linecap:round;stroke-linejoin:round;stroke-miterlimit:4;stroke-dasharray:none" id="rect996" width="15" height="40" x="63.35" y="-140.949" ry="7.5" transform="rotate(90)"/><rect style="opacity:.994175;fill:#f3f3f3;fill-opacity:1;stroke-width:5.99811;stroke-linecap:round;stroke-linejoin:round;stroke-miterlimit:4;stroke-dasharray:none" id="rect1007" width="15" height="40" x="-78.35" y="-140.949" ry="7.5" transform="scale(-1)"/><rect style="opacity:.994175;fill:#f3f3f3;fill-opacity:1;stroke-width:5.99811;stroke-linecap:round;stroke-linejoin:round;stroke-miterlimit:4;stroke-dasharray:none" id="rect1009" width="15" height="40" x="-78.35" y=".751" ry="7.5" transform="rotate(-90)"/></g></svg>