<svg xmlns="http://www.w3.org/2000/svg" xmlns:xlink="http://www.w3.org/1999/xlink" id="Layer_2" width="400.667" height="400.666" x="0" y="0" enable-background="new 0 0 400.667 400.666" version="1.1" viewBox="0 0 400.667 400.666" xml:space="preserve"><filter id="AI_Shadow_1" filterUnits="objectBoundingBox"><feGaussianBlur in="SourceAlpha" result="blur" stdDeviation="5"/><feOffset dx="0" dy="0" in="blur" result="offsetBlurredAlpha"/><feMerge><feMergeNode in="offsetBlurredAlpha"/><feMergeNode in="SourceGraphic"/></feMerge></filter><path fill="#232323" d="M200.333,47c-84.497,0-153,68.503-153,153s68.503,153,153,153	s153-68.503,153-153S284.831,47,200.333,47z M275.85,221.422c1.929-6.813,2.984-13.992,2.984-21.422	c0-7.397-1.045-14.546-2.958-21.332l49.113-13.869c3.155,11.193,4.846,23,4.846,35.201c0,12.256-1.704,24.114-4.886,35.351	L275.85,221.422z" filter="url(#AI_Shadow_1)"/><line x1="200.333" x2="200.333" y1="49.902" y2="73.334" fill="none" stroke="#FFF" stroke-miterlimit="10" stroke-width="4"/><line x1="288.559" x2="274.786" y1="78.569" y2="97.525" fill="none" stroke="#FFF" stroke-miterlimit="10" stroke-width="4"/><line x1="343.084" x2="320.799" y1="153.619" y2="160.859" fill="none" stroke="#FFF" stroke-miterlimit="10" stroke-width="4"/><line x1="320.799" x2="343.083" y1="239.144" y2="246.385" fill="none" stroke="#FFF" stroke-miterlimit="10" stroke-width="4"/><line x1="288.556" x2="274.784" y1="321.434" y2="302.477" fill="none" stroke="#FFF" stroke-miterlimit="10" stroke-width="4"/><line x1="200.331" x2="200.331" y1="350.1" y2="326.667" fill="none" stroke="#FFF" stroke-miterlimit="10" stroke-width="4"/><line x1="112.105" x2="125.878" y1="321.433" y2="302.476" fill="none" stroke="#FFF" stroke-miterlimit="10" stroke-width="4"/><line x1="57.579" x2="79.864" y1="246.383" y2="239.143" fill="none" stroke="#FFF" stroke-miterlimit="10" stroke-width="4"/><line x1="57.58" x2="79.864" y1="153.617" y2="160.857" fill="none" stroke="#FFF" stroke-miterlimit="10" stroke-width="4"/><line x1="112.106" x2="125.879" y1="78.568" y2="97.523" fill="none" stroke="#FFF" stroke-miterlimit="10" stroke-width="4"/><line x1="219.147" x2="217.147" y1="51.091" y2="66.943" fill="none" stroke="#FFF" stroke-miterlimit="10" stroke-width="2"/><line x1="237.662" x2="233.691" y1="54.623" y2="70.101" fill="none" stroke="#FFF" stroke-miterlimit="10" stroke-width="2"/><line x1="255.588" x2="249.709" y1="60.448" y2="75.307" fill="none" stroke="#FFF" stroke-miterlimit="10" stroke-width="2"/><line x1="272.643" x2="264.948" y1="68.475" y2="82.479" fill="none" stroke="#FFF" stroke-miterlimit="10" stroke-width="2"/><line x1="303.079" x2="292.145" y1="90.591" y2="102.24" fill="none" stroke="#FFF" stroke-miterlimit="10" stroke-width="2"/><line x1="315.981" x2="303.672" y1="104.331" y2="114.519" fill="none" stroke="#FFF" stroke-miterlimit="10" stroke-width="2"/><line x1="327.059" x2="313.571" y1="119.58" y2="128.145" fill="none" stroke="#FFF" stroke-miterlimit="10" stroke-width="2"/><line x1="336.139" x2="321.684" y1="136.098" y2="142.903" fill="none" stroke="#FFF" stroke-miterlimit="10" stroke-width="2"/><line x1="350.125" x2="334.18" y1="190.58" y2="191.587" fill="none" stroke="#FFF" stroke-miterlimit="10" stroke-width="2"/><line x1="347.763" x2="332.07" y1="171.88" y2="174.878" fill="none" stroke="#FFF" stroke-miterlimit="10" stroke-width="2"/><line x1="350.125" x2="334.179" y1="209.429" y2="208.429" fill="none" stroke="#FFF" stroke-miterlimit="10" stroke-width="2"/><line x1="347.762" x2="332.067" y1="228.129" y2="225.138" fill="none" stroke="#FFF" stroke-miterlimit="10" stroke-width="2"/><line x1="336.135" x2="321.676" y1="263.91" y2="257.109" fill="none" stroke="#FFF" stroke-miterlimit="10" stroke-width="2"/><line x1="327.054" x2="313.562" y1="280.427" y2="271.868" fill="none" stroke="#FFF" stroke-miterlimit="10" stroke-width="2"/><line x1="315.975" x2="303.663" y1="295.675" y2="285.493" fill="none" stroke="#FFF" stroke-miterlimit="10" stroke-width="2"/><line x1="303.073" x2="292.132" y1="309.415" y2="297.77" fill="none" stroke="#FFF" stroke-miterlimit="10" stroke-width="2"/><line x1="272.635" x2="264.934" y1="331.528" y2="317.527" fill="none" stroke="#FFF" stroke-miterlimit="10" stroke-width="2"/><line x1="255.58" x2="249.694" y1="339.554" y2="324.697" fill="none" stroke="#FFF" stroke-miterlimit="10" stroke-width="2"/><line x1="237.654" x2="233.676" y1="345.378" y2="329.9" fill="none" stroke="#FFF" stroke-miterlimit="10" stroke-width="2"/><line x1="219.139" x2="217.133" y1="348.909" y2="333.056" fill="none" stroke="#FFF" stroke-miterlimit="10" stroke-width="2"/><line x1="181.515" x2="183.516" y1="348.907" y2="333.054" fill="none" stroke="#FFF" stroke-miterlimit="10" stroke-width="2"/><line x1="163" x2="166.972" y1="345.375" y2="329.896" fill="none" stroke="#FFF" stroke-miterlimit="10" stroke-width="2"/><line x1="145.074" x2="150.955" y1="339.55" y2="324.691" fill="none" stroke="#FFF" stroke-miterlimit="10" stroke-width="2"/><line x1="128.02" x2="135.717" y1="331.523" y2="317.52" fill="none" stroke="#FFF" stroke-miterlimit="10" stroke-width="2"/><line x1="97.583" x2="108.521" y1="309.409" y2="297.758" fill="none" stroke="#FFF" stroke-miterlimit="10" stroke-width="2"/><line x1="84.68" x2="96.992" y1="295.669" y2="285.479" fill="none" stroke="#FFF" stroke-miterlimit="10" stroke-width="2"/><line x1="73.602" x2="87.094" y1="280.42" y2="271.854" fill="none" stroke="#FFF" stroke-miterlimit="10" stroke-width="2"/><line x1="64.521" x2="78.981" y1="263.902" y2="257.095" fill="none" stroke="#FFF" stroke-miterlimit="10" stroke-width="2"/><line x1="52.896" x2="68.595" y1="228.12" y2="225.123" fill="none" stroke="#FFF" stroke-miterlimit="10" stroke-width="2"/><line x1="50.534" x2="66.485" y1="209.42" y2="208.414" fill="none" stroke="#FFF" stroke-miterlimit="10" stroke-width="2"/><line x1="50.535" x2="66.486" y1="190.571" y2="191.572" fill="none" stroke="#FFF" stroke-miterlimit="10" stroke-width="2"/><line x1="52.897" x2="68.598" y1="171.871" y2="174.863" fill="none" stroke="#FFF" stroke-miterlimit="10" stroke-width="2"/><line x1="64.524" x2="78.988" y1="136.089" y2="142.892" fill="none" stroke="#FFF" stroke-miterlimit="10" stroke-width="2"/><line x1="73.605" x2="87.103" y1="119.571" y2="128.134" fill="none" stroke="#FFF" stroke-miterlimit="10" stroke-width="2"/><line x1="84.685" x2="97.003" y1="104.322" y2="114.51" fill="none" stroke="#FFF" stroke-miterlimit="10" stroke-width="2"/><line x1="97.589" x2="108.533" y1="90.582" y2="102.233" fill="none" stroke="#FFF" stroke-miterlimit="10" stroke-width="2"/><line x1="128.027" x2="135.73" y1="68.468" y2="82.476" fill="none" stroke="#FFF" stroke-miterlimit="10" stroke-width="2"/><line x1="145.083" x2="150.969" y1="60.442" y2="75.306" fill="none" stroke="#FFF" stroke-miterlimit="10" stroke-width="2"/><line x1="163.01" x2="166.987" y1="54.618" y2="70.103" fill="none" stroke="#FFF" stroke-miterlimit="10" stroke-width="2"/><line x1="181.525" x2="183.53" y1="51.087" y2="66.948" fill="none" stroke="#FFF" stroke-miterlimit="10" stroke-width="2"/><text fill="#FFF" stroke="#FFF" stroke-miterlimit="10" font-family="sans-serif" font-size="25" transform="matrix(1 0 0 1 193.5479 98.8154)">0</text><text fill="#FFF" stroke="#FFF" stroke-miterlimit="10" stroke-width=".5" font-family="sans-serif" font-size="25" transform="matrix(1 0 0 1 176.6558 162.5869)">ALT</text><text fill="#FFF" stroke="#FFF" stroke-miterlimit="10" font-family="sans-serif" font-size="25" transform="matrix(1 0 0 1 257.1592 120.9824)">1</text><text fill="#FFF" stroke="#FFF" stroke-miterlimit="10" font-family="sans-serif" font-size="25" transform="matrix(1 0 0 1 299.4922 160.877)">2</text><text fill="#FFF" stroke="#FFF" stroke-miterlimit="10" font-family="sans-serif" font-size="25" transform="matrix(1 0 0 1 299.4922 256.7627)">3</text><text fill="#FFF" stroke="#FFF" stroke-miterlimit="10" font-family="sans-serif" font-size="25" transform="matrix(1 0 0 1 258.9092 295.2324)">4</text><text fill="#FFF" stroke="#FFF" stroke-miterlimit="10" font-family="sans-serif" font-size="25" transform="matrix(1 0 0 1 193.6592 318.4824)">5</text><text fill="#FFF" stroke="#FFF" stroke-miterlimit="10" display="none" font-family="sans-serif" font-size="25" transform="matrix(1 0 0 1 127.02 296.2324)">6</text><text fill="#FFF" stroke="#FFF" stroke-miterlimit="10" font-family="sans-serif" font-size="25" transform="matrix(1 0 0 1 89.1592 242.7627)">7</text><text fill="#FFF" stroke="#FFF" stroke-miterlimit="10" font-family="sans-serif" font-size="25" transform="matrix(1 0 0 1 87.1592 175.2324)">8</text><text fill="#FFF" stroke="#FFF" stroke-miterlimit="10" font-family="sans-serif" font-size="25" transform="matrix(1 0 0 1 129.9092 119.9824)">9</text><g><path fill="none" d="M174.243,243.809l61.533,38.566c3.073-1.324,6.051-2.824,8.936-4.471l-66.101-41.43L174.243,243.809z"/><path fill="none" d="M165.159,259.06l47.482,29.761c4.114-0.565,8.138-1.413,12.055-2.517l-55.169-34.578L165.159,259.06z"/><path fill="none" d="M214.732,238.17c-3.751,1.431-7.764,2.328-11.956,2.578l34.692,21.744l-9.571-16.07L214.732,238.17z"/><path fill="none" d="M156.076,274.312l18.447,11.562c7.001,2.103,14.36,3.375,21.967,3.696l-36.045-22.592L156.076,274.312z"/><path fill="#FFF" d="M154.451,277.04c6.239,3.724,12.973,6.701,20.072,8.833l-18.447-11.562L154.451,277.04z"/><path fill="#FFF" d="M160.444,266.978l36.045,22.592c1.275,0.054,2.555,0.09,3.844,0.09c4.176,0,8.285-0.286,12.308-0.839 l-47.482-29.761L160.444,266.978z"/><path fill="#FFF" d="M169.527,251.726l55.169,34.578c3.801-1.072,7.5-2.386,11.079-3.929l-61.533-38.566L169.527,251.726z"/><path fill="#FFF" d="M200.333,240.833c-7.636,0-14.773-2.12-20.868-5.794l-0.855,1.437l66.101,41.43 c0.482-0.275,0.967-0.544,1.443-0.828l-8.686-14.584l-34.692-21.744C201.967,240.797,201.155,240.833,200.333,240.833z"/><path fill="#FFF" d="M221.14,235.076c-2.025,1.216-4.173,2.242-6.408,3.095l13.165,8.252L221.14,235.076z"/></g><text fill="#FFF" font-family="sans-serif" font-size="11" transform="matrix(1 0 0 1 209.8882 81.333)">FEET</text><text fill="#FFF" font-family="sans-serif" font-size="11" transform="matrix(1 0 0 1 174.3154 81.333)">100</text><text fill="#FFF" font-family="sans-serif" font-size="11" transform="matrix(1 0 0 1 175.376 137.582)">1000 FEET</text><text transform="matrix(1 0 0 1 104.334 191.915)"><tspan x="0" y="0" fill="#FFF" font-family="sans-serif" font-size="12">CALIBRATED</tspan><tspan x="24.453" y="12" fill="#FFF" font-family="sans-serif" font-size="12">TO</tspan><tspan x="1.936" y="24" fill="#FFF" font-family="sans-serif" font-size="12">25 000 FEET</tspan></text></svg>