<svg xmlns="http://www.w3.org/2000/svg" xmlns:xlink="http://www.w3.org/1999/xlink" id="Layer_2" width="400.667" height="400.666" x="0" y="0" enable-background="new 0 0 400.667 400.666" version="1.1" viewBox="0 0 400.667 400.666" xml:space="preserve"><circle cx="200.333" cy="200" r="161" fill="#232323"/><g><text fill="#FFF" font-family="sans-serif" font-size="11" transform="matrix(1 0 0 1 289.6499 203.833)">990</text><text fill="#FFF" font-family="sans-serif" font-size="11" transform="matrix(0.9848 0.1736 -0.1736 0.9848 287.627 219.2837)">985</text><text fill="#FFF" font-family="sans-serif" font-size="11" transform="matrix(0.9397 0.342 -0.342 0.9397 282.9517 234.1489)">980</text><text fill="#FFF" font-family="sans-serif" font-size="11" transform="matrix(0.9848 -0.1736 0.1736 0.9848 288.959 188.2651)">995</text><text fill="#FFF" font-family="sans-serif" font-size="11" transform="matrix(0.9397 -0.342 0.342 0.9397 280.3481 174.9556)">1000</text><text fill="#FFF" font-family="sans-serif" font-size="11" transform="matrix(0.866 -0.5 0.5 0.866 274.7842 161.4429)">1005</text><text fill="#FFF" font-family="sans-serif" font-size="11" transform="matrix(0.766 -0.6428 0.6428 0.766 266.9575 149.1006)">1010</text><text fill="#FFF" font-family="sans-serif" font-size="11" transform="matrix(0.6428 -0.766 0.766 0.6428 257.1064 138.3047)">1015</text><text fill="#FFF" font-family="sans-serif" font-size="11" transform="matrix(0.5 -0.866 0.866 0.5 245.5322 129.3848)">1020</text><text fill="#FFF" font-family="sans-serif" font-size="11" transform="matrix(0.342 -0.9397 0.9397 0.342 232.583 122.6084)">1025</text><text fill="#FFF" font-family="sans-serif" font-size="11" transform="matrix(0.1736 -0.9848 0.9848 0.1736 218.6543 118.1841)">1030</text><text fill="#FFF" font-family="sans-serif" font-size="11" transform="matrix(2.980232e-008 -1 1 2.980232e-008 204.168 116.2451)">1035</text><g><line x1="313.562" x2="324.167" y1="200.333" y2="200.333" fill="none" stroke="#FFF" stroke-miterlimit="10" stroke-width="2"/></g><line x1="315.803" x2="321.803" y1="196.3" y2="196.091" fill="none" stroke="#FFF" stroke-miterlimit="10"/><line x1="315.604" x2="321.592" y1="192.273" y2="191.854" fill="none" stroke="#FFF" stroke-miterlimit="10"/><line x1="315.264" x2="321.234" y1="188.255" y2="187.628" fill="none" stroke="#FFF" stroke-miterlimit="10"/><line x1="314.784" x2="320.729" y1="184.251" y2="183.417" fill="none" stroke="#FFF" stroke-miterlimit="10"/><g><line x1="311.784" x2="322.227" y1="219.989" y2="221.83" fill="none" stroke="#FFF" stroke-miterlimit="10" stroke-width="2"/></g><line x1="314.691" x2="320.636" y1="216.407" y2="217.243" fill="none" stroke="#FFF" stroke-miterlimit="10"/><line x1="315.194" x2="321.165" y1="212.406" y2="213.034" fill="none" stroke="#FFF" stroke-miterlimit="10"/><line x1="315.557" x2="321.545" y1="208.391" y2="208.81" fill="none" stroke="#FFF" stroke-miterlimit="10"/><line x1="315.78" x2="321.78" y1="204.364" y2="204.574" fill="none" stroke="#FFF" stroke-miterlimit="10"/><g><line x1="306.619" x2="316.584" y1="239.038" y2="242.665" fill="none" stroke="#FFF" stroke-miterlimit="10" stroke-width="2"/></g><line x1="310.104" x2="315.814" y1="236.016" y2="237.871" fill="none" stroke="#FFF" stroke-miterlimit="10"/><line x1="311.293" x2="317.065" y1="232.162" y2="233.818" fill="none" stroke="#FFF" stroke-miterlimit="10"/><line x1="312.349" x2="318.173" y1="228.271" y2="229.724" fill="none" stroke="#FFF" stroke-miterlimit="10"/><line x1="313.268" x2="319.14" y1="224.345" y2="225.594" fill="none" stroke="#FFF" stroke-miterlimit="10"/><line x1="302.182" x2="307.483" y1="254.529" y2="257.349" fill="none" stroke="#FFF" stroke-miterlimit="10"/><line x1="304.022" x2="309.418" y1="250.941" y2="253.574" fill="none" stroke="#FFF" stroke-miterlimit="10"/><line x1="305.737" x2="311.221" y1="247.293" y2="249.734" fill="none" stroke="#FFF" stroke-miterlimit="10"/><line x1="307.325" x2="312.89" y1="243.586" y2="245.835" fill="none" stroke="#FFF" stroke-miterlimit="10"/><line x1="314.165" x2="320.078" y1="180.267" y2="179.225" fill="none" stroke="#FFF" stroke-miterlimit="10"/><line x1="313.407" x2="319.28" y1="176.307" y2="175.059" fill="none" stroke="#FFF" stroke-miterlimit="10"/><line x1="312.51" x2="318.337" y1="172.375" y2="170.923" fill="none" stroke="#FFF" stroke-miterlimit="10"/><line x1="311.478" x2="317.25" y1="168.478" y2="166.823" fill="none" stroke="#FFF" stroke-miterlimit="10"/><line x1="310.311" x2="316.022" y1="164.619" y2="162.764" fill="none" stroke="#FFF" stroke-miterlimit="10"/><line x1="309.009" x2="314.652" y1="160.802" y2="158.75" fill="none" stroke="#FFF" stroke-miterlimit="10"/><line x1="307.575" x2="313.143" y1="157.034" y2="154.786" fill="none" stroke="#FFF" stroke-miterlimit="10"/><line x1="306.01" x2="311.497" y1="153.317" y2="150.876" fill="none" stroke="#FFF" stroke-miterlimit="10"/><line x1="304.317" x2="309.715" y1="149.658" y2="147.027" fill="none" stroke="#FFF" stroke-miterlimit="10"/><line x1="302.497" x2="307.8" y1="146.06" y2="143.242" fill="none" stroke="#FFF" stroke-miterlimit="10"/><line x1="300.552" x2="305.754" y1="142.528" y2="139.526" fill="none" stroke="#FFF" stroke-miterlimit="10"/><line x1="298.486" x2="303.58" y1="139.065" y2="135.885" fill="none" stroke="#FFF" stroke-miterlimit="10"/><line x1="296.299" x2="301.279" y1="135.677" y2="132.321" fill="none" stroke="#FFF" stroke-miterlimit="10"/><line x1="293.996" x2="298.855" y1="132.368" y2="128.839" fill="none" stroke="#FFF" stroke-miterlimit="10"/><line x1="291.579" x2="296.312" y1="129.141" y2="125.445" fill="none" stroke="#FFF" stroke-miterlimit="10"/><line x1="289.05" x2="293.652" y1="126" y2="122.141" fill="none" stroke="#FFF" stroke-miterlimit="10"/><line x1="286.414" x2="290.878" y1="122.949" y2="118.932" fill="none" stroke="#FFF" stroke-miterlimit="10"/><line x1="283.672" x2="287.994" y1="119.992" y2="115.821" fill="none" stroke="#FFF" stroke-miterlimit="10"/><line x1="280.83" x2="285.002" y1="117.133" y2="112.813" fill="none" stroke="#FFF" stroke-miterlimit="10"/><line x1="277.889" x2="281.908" y1="114.375" y2="109.912" fill="none" stroke="#FFF" stroke-miterlimit="10"/><line x1="274.854" x2="278.714" y1="111.72" y2="107.121" fill="none" stroke="#FFF" stroke-miterlimit="10"/><line x1="271.728" x2="275.425" y1="109.173" y2="104.442" fill="none" stroke="#FFF" stroke-miterlimit="10"/><line x1="268.515" x2="272.044" y1="106.737" y2="101.88" fill="none" stroke="#FFF" stroke-miterlimit="10"/><line x1="265.219" x2="268.577" y1="104.415" y2="99.438" fill="none" stroke="#FFF" stroke-miterlimit="10"/><line x1="261.844" x2="265.026" y1="102.209" y2="97.118" fill="none" stroke="#FFF" stroke-miterlimit="10"/><line x1="258.394" x2="261.396" y1="100.123" y2="94.923" fill="none" stroke="#FFF" stroke-miterlimit="10"/><line x1="254.873" x2="257.692" y1="98.158" y2="92.856" fill="none" stroke="#FFF" stroke-miterlimit="10"/><line x1="251.286" x2="253.917" y1="96.316" y2="90.92" fill="none" stroke="#FFF" stroke-miterlimit="10"/><line x1="247.636" x2="250.078" y1="94.602" y2="89.117" fill="none" stroke="#FFF" stroke-miterlimit="10"/><line x1="243.929" x2="246.178" y1="93.016" y2="87.449" fill="none" stroke="#FFF" stroke-miterlimit="10"/><line x1="240.169" x2="242.222" y1="91.56" y2="85.918" fill="none" stroke="#FFF" stroke-miterlimit="10"/><line x1="236.361" x2="238.215" y1="90.236" y2="84.526" fill="none" stroke="#FFF" stroke-miterlimit="10"/><line x1="232.508" x2="234.163" y1="89.045" y2="83.275" fill="none" stroke="#FFF" stroke-miterlimit="10"/><line x1="228.617" x2="230.069" y1="87.991" y2="82.166" fill="none" stroke="#FFF" stroke-miterlimit="10"/><line x1="224.691" x2="225.939" y1="87.072" y2="81.2" fill="none" stroke="#FFF" stroke-miterlimit="10"/><line x1="220.735" x2="221.778" y1="86.291" y2="80.379" fill="none" stroke="#FFF" stroke-miterlimit="10"/><line x1="216.754" x2="217.59" y1="85.648" y2="79.704" fill="none" stroke="#FFF" stroke-miterlimit="10"/><line x1="212.753" x2="213.381" y1="85.146" y2="79.175" fill="none" stroke="#FFF" stroke-miterlimit="10"/><line x1="208.738" x2="209.157" y1="84.783" y2="78.794" fill="none" stroke="#FFF" stroke-miterlimit="10"/><line x1="204.711" x2="204.921" y1="84.56" y2="78.561" fill="none" stroke="#FFF" stroke-miterlimit="10"/><line x1="196.648" x2="196.439" y1="84.534" y2="78.535" fill="none" stroke="#FFF" stroke-miterlimit="10"/><line x1="192.621" x2="192.203" y1="84.734" y2="78.746" fill="none" stroke="#FFF" stroke-miterlimit="10"/><line x1="188.603" x2="187.976" y1="85.074" y2="79.103" fill="none" stroke="#FFF" stroke-miterlimit="10"/><line x1="184.599" x2="183.764" y1="85.554" y2="79.609" fill="none" stroke="#FFF" stroke-miterlimit="10"/><line x1="311.9" x2="322.343" y1="180.666" y2="178.824" fill="none" stroke="#FFF" stroke-miterlimit="10" stroke-width="2"/><line x1="306.847" x2="316.812" y1="161.586" y2="157.959" fill="none" stroke="#FFF" stroke-miterlimit="10" stroke-width="2"/><line x1="298.559" x2="307.743" y1="143.674" y2="138.372" fill="none" stroke="#FFF" stroke-miterlimit="10" stroke-width="2"/><line x1="287.286" x2="295.41" y1="127.474" y2="120.657" fill="none" stroke="#FFF" stroke-miterlimit="10" stroke-width="2"/><line x1="273.371" x2="280.187" y1="113.477" y2="105.353" fill="none" stroke="#FFF" stroke-miterlimit="10" stroke-width="2"/><line x1="257.236" x2="262.539" y1="102.108" y2="92.924" fill="none" stroke="#FFF" stroke-miterlimit="10" stroke-width="2"/><line x1="239.373" x2="243" y1="93.715" y2="83.75" fill="none" stroke="#FFF" stroke-miterlimit="10" stroke-width="2"/><line x1="220.324" x2="222.165" y1="88.55" y2="78.107" fill="none" stroke="#FFF" stroke-miterlimit="10" stroke-width="2"/><line x1="200.667" x2="200.667" y1="86.772" y2="76.168" fill="none" stroke="#FFF" stroke-miterlimit="10" stroke-width="2"/></g></svg>