<svg xmlns="http://www.w3.org/2000/svg" xmlns:xlink="http://www.w3.org/1999/xlink" id="Layer_2" width="400.667" height="400.666" x="0" y="0" enable-background="new 0 0 400.667 400.666" version="1.1" viewBox="0 0 400.667 400.666" xml:space="preserve"><filter id="AI_Shadow_1" filterUnits="objectBoundingBox"><feGaussianBlur in="SourceAlpha" result="blur" stdDeviation="5"/><feOffset dx="0" dy="0" in="blur" result="offsetBlurredAlpha"/><feMerge><feMergeNode in="offsetBlurredAlpha"/><feMergeNode in="SourceGraphic"/></feMerge></filter><g filter="url(#AI_Shadow_1)"><path fill="#110F0F" d="M387.667,375c0,6.627-5.373,12-12,12h-350c-6.627,0-12-5.373-12-12V25c0-6.627,5.373-12,12-12h350 c6.627,0,12,5.373,12,12V375z"/><path fill="none" stroke="#FFF" stroke-miterlimit="10" stroke-width=".5" d="M387.667,375c0,6.627-5.373,12-12,12h-350 c-6.627,0-12-5.373-12-12V25c0-6.627,5.373-12,12-12h350c6.627,0,12,5.373,12,12V375z"/></g></svg>