<svg xmlns="http://www.w3.org/2000/svg" xmlns:xlink="http://www.w3.org/1999/xlink" width="400.667" height="400.666" x="0" y="0" enable-background="new 0 0 400.667 400.666" version="1.1" viewBox="0 0 400.667 400.666" xml:space="preserve"><filter id="AI_Shadow_1" filterUnits="objectBoundingBox"><feGaussianBlur in="SourceAlpha" result="blur" stdDeviation="5"/><feOffset dx="0" dy="0" in="blur" result="offsetBlurredAlpha"/><feMerge><feMergeNode in="offsetBlurredAlpha"/><feMergeNode in="SourceGraphic"/></feMerge></filter><g id="Layer_2"><linearGradient id="SVGID_2_" x1="200.667" x2="200.667" y1="349.933" y2="50.4" gradientUnits="userSpaceOnUse"><stop offset=".5" style="stop-color:#503723"/><stop offset=".5" style="stop-color:#558ebb"/></linearGradient><path fill="url(#SVGID_2_)" d="M200.667,50.4C117.953,50.4,50.9,117.453,50.9,200.167 s67.053,149.767,149.767,149.767s149.767-67.053,149.767-149.767S283.38,50.4,200.667,50.4z M200.667,300.5 c-55.413,0-100.334-44.921-100.334-100.334c0-55.412,44.921-100.333,100.334-100.333C256.079,99.833,301,144.753,301,200.166 C301,255.579,256.079,300.5,200.667,300.5z" filter="url(#AI_Shadow_1)"/><line x1="50.667" x2="100.333" y1="200.333" y2="200.333" fill="none" stroke="#FFF" stroke-miterlimit="10" stroke-width="4"/><line x1="300.749" x2="350.433" y1="200.333" y2="200.333" fill="none" stroke="#FFF" stroke-miterlimit="10" stroke-width="4"/><line x1="78.415" x2="112.082" y1="131.582" y2="151.915" fill="none" stroke="#FFF" stroke-miterlimit="10" stroke-width="4"/><line x1="288.751" x2="323.585" y1="151.915" y2="131.582" fill="none" stroke="#FFF" stroke-miterlimit="10" stroke-width="4"/><line x1="149.418" x2="129.418" y1="113.75" y2="79.25" fill="none" stroke="#FFF" stroke-miterlimit="10" stroke-width="4"/><line x1="252.084" x2="272.751" y1="113.75" y2="79.25" fill="none" stroke="#FFF" stroke-miterlimit="10" stroke-width="4"/><polygon fill="#FFF" points="185.918 60.085 215.251 60.085 200.585 98.918"/><polygon fill="#FFF" points="119.084 117.417 112.082 124.251 126.584 131.582"/><polygon fill="#FFF" points="274.084 131.582 281.251 117.417 288.751 124.5"/></g></svg>