<svg xmlns="http://www.w3.org/2000/svg" xmlns:xlink="http://www.w3.org/1999/xlink" id="Layer_2" width="400.667" height="400.666" x="0" y="0" enable-background="new 0 0 400.667 400.666" version="1.1" viewBox="0 0 400.667 400.666" xml:space="preserve"><filter id="AI_Shadow_1" filterUnits="objectBoundingBox"><feGaussianBlur in="SourceAlpha" result="blur" stdDeviation="5"/><feOffset dx="0" dy="0" in="blur" result="offsetBlurredAlpha"/><feMerge><feMergeNode in="offsetBlurredAlpha"/><feMergeNode in="SourceGraphic"/></feMerge></filter><line x1="130" x2="176" y1="200.457" y2="200.457" fill="none" stroke="#FF7F00" stroke-linecap="round" stroke-miterlimit="10" stroke-width="5"/><line x1="225" x2="271" y1="200.457" y2="200.457" fill="none" stroke="#FF7F00" stroke-linecap="round" stroke-miterlimit="10" stroke-width="5"/><line x1="200.534" x2="200.534" y1="200.457" y2="200.457" fill="none" stroke="#FF7F00" stroke-linecap="round" stroke-miterlimit="10" stroke-width="5"/><line x1="200.399" x2="190.483" y1="103.417" y2="130.583" fill="none" stroke="#FF7F00" stroke-linecap="round" stroke-miterlimit="10" stroke-width="5"/><line x1="190.483" x2="210.316" y1="130.583" y2="130.583" fill="none" stroke="#FF7F00" stroke-linecap="round" stroke-miterlimit="10" stroke-width="5"/><line x1="210.316" x2="200.399" y1="130.583" y2="103.417" fill="none" stroke="#FF7F00" stroke-linecap="round" stroke-miterlimit="10" stroke-width="5"/><g filter="url(#AI_Shadow_1)"><path fill="#232323" d="M82.663,298.167c28.157,33.81,70.564,55.333,118.004,55.333s89.847-21.524,118.004-55.333H82.663z"/><path fill="none" stroke="#353535" stroke-miterlimit="10" stroke-width="1.3" d="M82.663,298.167 c28.157,33.81,70.564,55.333,118.004,55.333s89.847-21.524,118.004-55.333H82.663z"/></g><line x1="200.667" x2="200.667" y1="298.667" y2="329.167" fill="none" stroke="#FFF" stroke-miterlimit="10" stroke-width="4"/><line x1="254.667" x2="254.667" y1="298.667" y2="308.917" fill="none" stroke="#FFF" stroke-miterlimit="10" stroke-width="4"/><line x1="146.667" x2="146.667" y1="298.667" y2="308.917" fill="none" stroke="#FFF" stroke-miterlimit="10" stroke-width="4"/></svg>