<svg xmlns="http://www.w3.org/2000/svg" xmlns:xlink="http://www.w3.org/1999/xlink" id="Layer_2" width="400.667" height="400.666" x="0" y="0" enable-background="new 0 0 400.667 400.666" version="1.1" viewBox="0 0 400.667 400.666" xml:space="preserve"><circle cx="200.333" cy="200" r="161" fill="#232323"/><path fill="none" stroke="#F9FF00" stroke-miterlimit="10" stroke-width="10" d="M57.4,175.086	C43.974,251.226,91.471,314.98,149.825,336"/><path fill="none" stroke="red" stroke-miterlimit="10" stroke-width="10" d="M106.854,89.039	c-28.113,23.588-44.001,55.344-49.512,86.375"/><path fill="none" stroke="#007511" stroke-miterlimit="10" stroke-width="10" d="M151.628,336.661	c40.369,14.45,85.524,10.282,121.509-10.494c62.801-36.257,97.126-122.438,53.195-198.528"/><line x1="296.814" x2="281.752" y1="85.02" y2="102.968" fill="none" stroke="#FFF" stroke-miterlimit="10" stroke-width="4"/><line x1="310.03" x2="330.321" y1="136.667" y2="124.953" fill="none" stroke="#FFF" stroke-miterlimit="10" stroke-width="4"/><line x1="348.149" x2="325.076" y1="173.938" y2="178.006" fill="none" stroke="#FFF" stroke-miterlimit="10" stroke-width="4"/><line x1="348.149" x2="325.076" y1="226.065" y2="221.997" fill="none" stroke="#FFF" stroke-miterlimit="10" stroke-width="4"/><line x1="330.32" x2="310.03" y1="275.05" y2="263.336" fill="none" stroke="#FFF" stroke-miterlimit="10" stroke-width="4"/><line x1="296.812" x2="281.752" y1="314.982" y2="297.035" fill="none" stroke="#FFF" stroke-miterlimit="10" stroke-width="4"/><line x1="251.667" x2="243.655" y1="341.046" y2="319.031" fill="none" stroke="#FFF" stroke-miterlimit="10" stroke-width="4"/><line x1="200.331" x2="200.332" y1="350.098" y2="326.67" fill="none" stroke="#FFF" stroke-miterlimit="10" stroke-width="4"/><line x1="148.995" x2="157.008" y1="341.045" y2="319.03" fill="none" stroke="#FFF" stroke-miterlimit="10" stroke-width="4"/><line x1="103.85" x2="118.911" y1="314.98" y2="297.034" fill="none" stroke="#FFF" stroke-miterlimit="10" stroke-width="4"/><line x1="70.343" x2="90.633" y1="275.047" y2="263.334" fill="none" stroke="#FFF" stroke-miterlimit="10" stroke-width="4"/><line x1="52.515" x2="75.588" y1="226.063" y2="221.995" fill="none" stroke="#FFF" stroke-miterlimit="10" stroke-width="4"/><line x1="52.516" x2="75.588" y1="173.934" y2="178.004" fill="none" stroke="#FFF" stroke-miterlimit="10" stroke-width="4"/><line x1="70.346" x2="90.635" y1="124.949" y2="136.666" fill="none" stroke="#FFF" stroke-miterlimit="10" stroke-width="4"/><line x1="103.854" x2="118.912" y1="85.018" y2="102.967" fill="none" stroke="#FFF" stroke-miterlimit="10" stroke-width="4"/><line x1="315.313" x2="303.075" y1="103.523" y2="113.797" fill="none" stroke="#FFF" stroke-miterlimit="10" stroke-width="2"/><line x1="251.669" x2="243.655" y1="58.956" y2="80.973" fill="none" stroke="#FFF" stroke-miterlimit="10" stroke-width="4"/><line x1="275.381" x2="267.395" y1="70.017" y2="83.855" fill="none" stroke="#FFF" stroke-miterlimit="10" stroke-width="2"/><line x1="200.333" x2="200.333" y1="49.904" y2="73.334" fill="none" stroke="#FFF" stroke-miterlimit="10" stroke-width="4"/><line x1="226.398" x2="223.626" y1="52.188" y2="67.923" fill="none" stroke="#FFF" stroke-miterlimit="10" stroke-width="2"/><line x1="213.417" x2="212.444" y1="50.478" y2="61.619" fill="none" stroke="#FFF" stroke-miterlimit="10" stroke-width="2"/><line x1="239.182" x2="236.289" y1="55.021" y2="65.824" fill="none" stroke="#FFF" stroke-miterlimit="10" stroke-width="2"/><line x1="263.767" x2="259.042" y1="63.969" y2="74.105" fill="none" stroke="#FFF" stroke-miterlimit="10" stroke-width="2"/><line x1="286.424" x2="280.01" y1="77.05" y2="86.212" fill="none" stroke="#FFF" stroke-miterlimit="10" stroke-width="2"/><line x1="341.376" x2="326.362" y1="148.667" y2="154.136" fill="none" stroke="#FFF" stroke-miterlimit="10" stroke-width="2"/><line x1="350.427" x2="334.448" y1="200.002" y2="200.006" fill="none" stroke="#FFF" stroke-miterlimit="10" stroke-width="2"/><line x1="341.375" x2="326.358" y1="251.337" y2="245.876" fill="none" stroke="#FFF" stroke-miterlimit="10" stroke-width="2"/><line x1="315.312" x2="303.067" y1="296.48" y2="286.213" fill="none" stroke="#FFF" stroke-miterlimit="10" stroke-width="2"/><line x1="275.38" x2="267.385" y1="329.987" y2="316.15" fill="none" stroke="#FFF" stroke-miterlimit="10" stroke-width="2"/><line x1="226.396" x2="223.615" y1="347.816" y2="332.079" fill="none" stroke="#FFF" stroke-miterlimit="10" stroke-width="2"/><line x1="174.268" x2="177.038" y1="347.816" y2="332.077" fill="none" stroke="#FFF" stroke-miterlimit="10" stroke-width="2"/><line x1="125.284" x2="133.27" y1="329.988" y2="316.145" fill="none" stroke="#FFF" stroke-miterlimit="10" stroke-width="2"/><line x1="85.351" x2="97.59" y1="296.481" y2="286.203" fill="none" stroke="#FFF" stroke-miterlimit="10" stroke-width="2"/><line x1="59.287" x2="74.303" y1="251.337" y2="245.864" fill="none" stroke="#FFF" stroke-miterlimit="10" stroke-width="2"/><line x1="50.235" x2="66.217" y1="200" y2="199.994" fill="none" stroke="#FFF" stroke-miterlimit="10" stroke-width="2"/><line x1="59.287" x2="74.307" y1="148.664" y2="154.125" fill="none" stroke="#FFF" stroke-miterlimit="10" stroke-width="2"/><line x1="85.351" x2="97.598" y1="103.52" y2="113.788" fill="none" stroke="#FFF" stroke-miterlimit="10" stroke-width="2"/><text fill="#FFF" stroke="#FFF" stroke-miterlimit="10" stroke-width=".5" font-family="sans-serif" font-size="20" transform="matrix(1 0 0 1 257.6592 123.6489)">20</text><text fill="#FFF" stroke="#FFF" stroke-miterlimit="10" stroke-width=".5" font-family="sans-serif" font-size="20" transform="matrix(1 0 0 1 292.1592 187.1489)">40</text><text fill="#FFF" stroke="#FFF" stroke-miterlimit="10" stroke-width=".5" font-family="sans-serif" font-size="20" transform="matrix(1 0 0 1 267.3848 263.3359)">60</text><text fill="#FFF" stroke="#FFF" stroke-miterlimit="10" stroke-width=".5" font-family="sans-serif" font-size="20" transform="matrix(1 0 0 1 225.0059 302.1489)">80</text><text fill="#FFF" stroke="#FFF" stroke-miterlimit="10" stroke-width=".5" font-family="sans-serif" font-size="20" transform="matrix(1 0 0 1 153.0015 302.1489)">100</text><text fill="#FFF" stroke="#FFF" stroke-miterlimit="10" stroke-width=".5" font-family="sans-serif" font-size="20" transform="matrix(1 0 0 1 107.1592 256.6489)">120</text><text fill="#FFF" stroke="#FFF" stroke-miterlimit="10" stroke-width=".5" font-family="sans-serif" font-size="20" transform="matrix(1 0 0 1 91.4746 184.6489)">140</text><text fill="#FFF" stroke="#FFF" stroke-miterlimit="10" stroke-width=".5" font-family="sans-serif" font-size="20" transform="matrix(1 0 0 1 125.2837 123.6489)">160</text><text fill="#FFF" stroke="#FFF" stroke-miterlimit="10" stroke-width=".5" font-family="sans-serif" font-size="14" transform="matrix(1 0 0 1 175.3799 242.1895)">KNOTS</text><text fill="#FFF" stroke="#FFF" stroke-miterlimit="10" stroke-width=".5" font-family="sans-serif" font-size="14" transform="matrix(1 0 0 1 161.3086 165.1895)">AIR SPEED</text><text fill="#FFF" stroke="#FFF" stroke-miterlimit="10" stroke-width=".5" font-family="sans-serif" font-size="20" transform="matrix(1 0 0 1 194.6592 99.6489)">0</text></svg>