<svg xmlns="http://www.w3.org/2000/svg" xmlns:xlink="http://www.w3.org/1999/xlink" id="Layer_2" width="400.667" height="400.666" x="0" y="0" enable-background="new 0 0 400.667 400.666" version="1.1" viewBox="0 0 400.667 400.666" xml:space="preserve"><filter id="AI_Shadow_1" filterUnits="objectBoundingBox"><feGaussianBlur in="SourceAlpha" result="blur" stdDeviation="5"/><feOffset dx="0" dy="0" in="blur" result="offsetBlurredAlpha"/><feMerge><feMergeNode in="offsetBlurredAlpha"/><feMergeNode in="SourceGraphic"/></feMerge></filter><circle cx="200.333" cy="200" r="161" fill="#232323"/><line x1="50.234" x2="73.667" y1="200" y2="200" fill="none" stroke="#FFF" stroke-miterlimit="10" stroke-width="4"/><line x1="94.197" x2="110.767" y1="93.864" y2="110.434" fill="none" stroke="#FFF" stroke-miterlimit="10" stroke-width="4"/><line x1="200.333" x2="200.333" y1="49.902" y2="73.334" fill="none" stroke="#FFF" stroke-miterlimit="10" stroke-width="4"/><line x1="306.468" x2="289.9" y1="93.865" y2="110.434" fill="none" stroke="#FFF" stroke-miterlimit="10" stroke-width="4"/><line x1="348.583" x2="325.44" y1="223.481" y2="219.814" fill="none" stroke="#FFF" stroke-miterlimit="10" stroke-width="4"/><line x1="348.583" x2="325.44" y1="176.521" y2="180.185" fill="none" stroke="#FFF" stroke-miterlimit="10" stroke-width="4"/><line x1="306.467" x2="289.9" y1="306.137" y2="289.566" fill="none" stroke="#FFF" stroke-miterlimit="10" stroke-width="4"/><line x1="200.332" x2="200.333" y1="350.1" y2="326.666" fill="none" stroke="#FFF" stroke-miterlimit="10" stroke-width="4"/><line x1="94.196" x2="110.767" y1="306.137" y2="289.566" fill="none" stroke="#FFF" stroke-miterlimit="10" stroke-width="4"/><line x1="50.697" x2="66.627" y1="188.224" y2="189.477" fill="none" stroke="#FFF" stroke-miterlimit="10" stroke-width="2"/><line x1="52.082" x2="67.865" y1="176.52" y2="179.019" fill="none" stroke="#FFF" stroke-miterlimit="10" stroke-width="2"/><line x1="54.381" x2="69.919" y1="164.96" y2="168.689" fill="none" stroke="#FFF" stroke-miterlimit="10" stroke-width="2"/><line x1="57.581" x2="72.777" y1="153.616" y2="158.554" fill="none" stroke="#FFF" stroke-miterlimit="10" stroke-width="2"/><line x1="61.66" x2="76.422" y1="142.559" y2="148.674" fill="none" stroke="#FFF" stroke-miterlimit="10" stroke-width="2"/><line x1="66.594" x2="80.831" y1="131.855" y2="139.11" fill="none" stroke="#FFF" stroke-miterlimit="10" stroke-width="2"/><line x1="72.353" x2="85.977" y1="121.572" y2="129.922" fill="none" stroke="#FFF" stroke-miterlimit="10" stroke-width="2"/><line x1="78.9" x2="91.827" y1="111.772" y2="121.165" fill="none" stroke="#FFF" stroke-miterlimit="10" stroke-width="2"/><line x1="86.197" x2="98.347" y1="102.517" y2="112.895" fill="none" stroke="#FFF" stroke-miterlimit="10" stroke-width="2"/><line x1="50.697" x2="66.627" y1="211.777" y2="210.523" fill="none" stroke="#FFF" stroke-miterlimit="10" stroke-width="2"/><line x1="52.083" x2="67.866" y1="223.481" y2="220.98" fill="none" stroke="#FFF" stroke-miterlimit="10" stroke-width="2"/><line x1="54.382" x2="69.92" y1="235.041" y2="231.309" fill="none" stroke="#FFF" stroke-miterlimit="10" stroke-width="2"/><line x1="57.582" x2="72.779" y1="246.384" y2="241.444" fill="none" stroke="#FFF" stroke-miterlimit="10" stroke-width="2"/><line x1="61.661" x2="76.423" y1="257.441" y2="251.324" fill="none" stroke="#FFF" stroke-miterlimit="10" stroke-width="2"/><line x1="66.595" x2="80.833" y1="268.144" y2="260.887" fill="none" stroke="#FFF" stroke-miterlimit="10" stroke-width="2"/><line x1="72.354" x2="85.978" y1="278.427" y2="270.075" fill="none" stroke="#FFF" stroke-miterlimit="10" stroke-width="2"/><line x1="78.902" x2="91.829" y1="288.226" y2="278.831" fill="none" stroke="#FFF" stroke-miterlimit="10" stroke-width="2"/><line x1="86.199" x2="98.348" y1="297.481" y2="287.101" fill="none" stroke="#FFF" stroke-miterlimit="10" stroke-width="2"/><line x1="112.11" x2="121.5" y1="321.432" y2="308.502" fill="none" stroke="#FFF" stroke-miterlimit="10" stroke-width="2"/><line x1="132.192" x2="139.444" y1="333.738" y2="319.499" fill="none" stroke="#FFF" stroke-miterlimit="10" stroke-width="2"/><line x1="153.952" x2="158.887" y1="342.751" y2="327.553" fill="none" stroke="#FFF" stroke-miterlimit="10" stroke-width="2"/><line x1="176.853" x2="179.351" y1="348.25" y2="332.466" fill="none" stroke="#FFF" stroke-miterlimit="10" stroke-width="2"/><line x1="223.814" x2="221.312" y1="348.25" y2="332.467" fill="none" stroke="#FFF" stroke-miterlimit="10" stroke-width="2"/><line x1="246.716" x2="241.776" y1="342.751" y2="327.555" fill="none" stroke="#FFF" stroke-miterlimit="10" stroke-width="2"/><line x1="268.476" x2="261.219" y1="333.738" y2="319.501" fill="none" stroke="#FFF" stroke-miterlimit="10" stroke-width="2"/><line x1="288.558" x2="279.164" y1="321.432" y2="308.506" fill="none" stroke="#FFF" stroke-miterlimit="10" stroke-width="2"/><line x1="321.764" x2="308.834" y1="288.227" y2="278.836" fill="none" stroke="#FFF" stroke-miterlimit="10" stroke-width="2"/><line x1="334.071" x2="319.832" y1="268.145" y2="260.892" fill="none" stroke="#FFF" stroke-miterlimit="10" stroke-width="2"/><line x1="343.084" x2="327.886" y1="246.385" y2="241.449" fill="none" stroke="#FFF" stroke-miterlimit="10" stroke-width="2"/><line x1="343.085" x2="327.888" y1="153.621" y2="158.561" fill="none" stroke="#FFF" stroke-miterlimit="10" stroke-width="2"/><line x1="334.072" x2="319.834" y1="131.861" y2="139.117" fill="none" stroke="#FFF" stroke-miterlimit="10" stroke-width="2"/><line x1="321.765" x2="308.838" y1="111.778" y2="121.173" fill="none" stroke="#FFF" stroke-miterlimit="10" stroke-width="2"/><line x1="288.559" x2="279.168" y1="78.572" y2="91.502" fill="none" stroke="#FFF" stroke-miterlimit="10" stroke-width="2"/><line x1="268.477" x2="261.225" y1="66.266" y2="80.505" fill="none" stroke="#FFF" stroke-miterlimit="10" stroke-width="2"/><line x1="246.717" x2="241.782" y1="57.253" y2="72.451" fill="none" stroke="#FFF" stroke-miterlimit="10" stroke-width="2"/><line x1="223.815" x2="221.318" y1="51.754" y2="67.538" fill="none" stroke="#FFF" stroke-miterlimit="10" stroke-width="2"/><line x1="176.855" x2="179.357" y1="51.754" y2="67.537" fill="none" stroke="#FFF" stroke-miterlimit="10" stroke-width="2"/><line x1="153.953" x2="158.893" y1="57.252" y2="72.449" fill="none" stroke="#FFF" stroke-miterlimit="10" stroke-width="2"/><line x1="132.193" x2="139.45" y1="66.266" y2="80.502" fill="none" stroke="#FFF" stroke-miterlimit="10" stroke-width="2"/><line x1="112.111" x2="121.505" y1="78.572" y2="91.498" fill="none" stroke="#FFF" stroke-miterlimit="10" stroke-width="2"/><g display="none" filter="url(#AI_Shadow_1)"><path fill="#232323" d="M200.333,33.5c-91.956,0-166.5,74.544-166.5,166.5s74.544,166.5,166.5,166.5 c91.957,0,166.5-74.544,166.5-166.5S292.29,33.5,200.333,33.5z M200.667,350.099c-82.714,0-149.767-67.053-149.767-149.767 c0-82.713,67.053-149.767,149.767-149.767s149.767,67.053,149.767,149.767C350.433,283.046,283.38,350.099,200.667,350.099z" display="inline"/><path fill="none" stroke="#353535" stroke-miterlimit="10" stroke-width="1.3" d="M200.333,33.5 c-91.956,0-166.5,74.544-166.5,166.5s74.544,166.5,166.5,166.5c91.957,0,166.5-74.544,166.5-166.5S292.29,33.5,200.333,33.5z M200.667,350.099c-82.714,0-149.767-67.053-149.767-149.767c0-82.713,67.053-149.767,149.767-149.767 s149.767,67.053,149.767,149.767C350.433,283.046,283.38,350.099,200.667,350.099z" display="inline"/></g><path fill="none" stroke="#FFF" stroke-miterlimit="10" stroke-width="2" d="M337.011,178.353c0,0,3,8.314,3,21.98	c0,13.167-3,21.315-3,21.315"/><text fill="#FFF" stroke="#FFF" stroke-miterlimit="10" font-family="sans-serif" font-size="25" transform="matrix(1 0 0 1 83.1968 208.1665)">0</text><path fill="none" stroke="#FFF" stroke-miterlimit="10" stroke-width="2" d="M121.417,181.292h-36.25	c0,0,0.342-4.491,2.306-11.307c1.694-5.881,3.944-10.068,3.944-10.068"/><polygon fill="#FFF" stroke="#FFF" stroke-miterlimit="10" points="92.042 158.554 88.167 160.792 92.813 162.73"/><path fill="none" stroke="#FFF" stroke-miterlimit="10" stroke-width="2" d="M121.417,218.708h-36.25	c0,0,0.342,4.491,2.306,11.307c1.694,5.881,3.944,10.068,3.944,10.068"/><polygon fill="#FFF" stroke="#FFF" stroke-miterlimit="10" points="92.042 241.446 88.167 239.208 92.813 237.27"/><text fill="#FFF" stroke="#FFF" stroke-miterlimit="10" stroke-width=".5" font-family="sans-serif" font-size="10" transform="matrix(1 0 0 1 125.0005 184.6665)">UP</text><text fill="#FFF" stroke="#FFF" stroke-miterlimit="10" stroke-width=".5" font-family="sans-serif" font-size="10" transform="matrix(1 0 0 1 125.0005 222.6665)">DOWN</text><text fill="#FFF" stroke="#FFF" stroke-miterlimit="10" stroke-width="1.5" font-family="sans-serif" font-size="25" transform="matrix(1 0 0 1 193.6592 102.1489)">1</text><text fill="#FFF" stroke="#FFF" stroke-miterlimit="10" stroke-width="1.5" font-family="sans-serif" font-size="25" transform="matrix(1 0 0 1 192.6592 316.4985)">1</text><text fill="#FFF" stroke="#FFF" stroke-miterlimit="10" font-family="sans-serif" font-size="25" transform="matrix(1 0 0 1 112.1099 131.8608)">.5</text><text fill="#FFF" stroke="#FFF" stroke-miterlimit="10" font-family="sans-serif" font-size="25" transform="matrix(1 0 0 1 112.1108 283.5313)">.5</text><text transform="matrix(1 0 0 1 258.8477 135.4829)"><tspan x="0" y="0" fill="#FFF" stroke="#FFF" stroke-miterlimit="10" font-family="sans-serif" font-size="25" letter-spacing="-3">1</tspan><tspan x="10.355" y="0" fill="#FFF" stroke="#FFF" stroke-miterlimit="10" font-family="sans-serif" font-size="25">.5</tspan></text><text transform="matrix(1 0 0 1 261.2246 281.8164)"><tspan x="0" y="0" fill="#FFF" stroke="#FFF" stroke-miterlimit="10" font-family="sans-serif" font-size="25" letter-spacing="-3">1</tspan><tspan x="10.355" y="0" fill="#FFF" stroke="#FFF" stroke-miterlimit="10" font-family="sans-serif" font-size="25">.5</tspan></text><text fill="#FFF" stroke="#FFF" stroke-miterlimit="10" font-family="sans-serif" font-size="25" letter-spacing="-3" transform="matrix(1 0 0 1 304.8989 208.5229)">2</text><text fill="#FFF" stroke="#FFF" stroke-miterlimit="10" stroke-width=".5" font-family="sans-serif" font-size="14" transform="matrix(1 0 0 1 143.4497 165.6895)">VERTICAL SPEED</text><text fill="#FFF" stroke="#FFF" stroke-miterlimit="10" stroke-width=".5" font-family="sans-serif" font-size="14" transform="matrix(1 0 0 1 146.4497 242.3579)">1000FT PER MIN</text></svg>