<svg xmlns="http://www.w3.org/2000/svg" xmlns:svg="http://www.w3.org/2000/svg" xmlns:xlink="http://www.w3.org/1999/xlink" id="svg5730" x="0" y="0" enable-background="new 0 0 141.7 141.7" version="1.0" viewBox="0 0 141.7 141.7" xml:space="preserve"><title id="title5799">CF_Settings_Icon</title><g><path fill="#FFF" d="M88.6,67L86,61.2c0,0,5.8-12.9,5.2-13.5L83.5,40C82.9,39.4,70,45.8,70,45.8l-5.8-2.6c0,0-5.2-13.5-6.4-13.5 h-11c-0.6,0-5.8,13.5-5.8,13.5l-5.8,2.6c0,0-13.5-5.8-14.2-5.2l-7.7,7.7C12.6,48.9,19,61.8,19,61.8l-2.6,5.8c0,0-13.5,5.2-13.5,5.8 v11c0,0.6,13.5,5.8,13.5,5.8L19,96c0,0-5.8,13.5-5.2,13.5l7.7,7.7c0.6,0.6,13.5-5.8,13.5-5.8l5.8,2.6c0,0,5.2,13.5,6.4,13.5h11 c0.6,0,5.8-13.5,5.8-13.5l5.8-2.6c0,0,13.5,5.8,14.2,5.2l7.7-7.7c0.6-0.6-5.8-13.5-5.8-13.5l2.6-5.8c0,0,13.5-5.2,13.5-5.8v-11 C102.1,71.5,88.6,67,88.6,67z M52.5,93.4c-9,0-16.1-7.1-16.1-15.5s7.1-15.5,16.1-15.5s16.1,7.1,16.1,15.5S60.9,93.4,52.5,93.4z"/><path fill="#FFF" d="M134.4,54.1v-3.2c0,0,5.2-4.5,5.2-5.2l-1.9-5.2c0-0.6-7.1,0-7.1,0l-1.9-2.6v-7.1L124,29 c-0.6,0-5.2,4.5-5.2,4.5h-3.2c0,0-4.5-5.2-5.2-5.2l-5.2,1.9c-0.6,0,0,7.1,0,7.1l-2.6,1.9c0,0-7.1-0.6-7.1,0l-1.9,4.5 c0,0.6,5.2,5.2,5.2,5.2v3.2c0,0-5.2,4.5-5.2,5.2l1.9,5.2c0,0.6,7.1,0,7.1,0l1.9,2.6v7.1l4.5,1.9c0.6,0,5.2-4.5,5.2-4.5h3.2 c0,0,4.5,5.2,5.2,5.2l5.2-1.9c0.6,0,0-7.1,0-7.1l2.6-1.9c0,0,7.1,0.6,7.1,0l1.9-4.5C139.5,59.2,134.4,54.1,134.4,54.1z M123.4,55.4 c-1.9,3.9-6.4,5.2-10.3,3.9c-3.9-1.9-5.8-6.4-3.9-10.3c1.9-3.9,6.4-5.2,10.3-3.9C123.4,47,124.7,51.5,123.4,55.4z"/></g></svg>